<?xml version="1.0" encoding="utf-8"?>
<!-- Generator: Adobe Illustrator 27.9.0, SVG Export Plug-In . SVG Version: 6.00 Build 0)  -->
<svg version="1.1" id="Camada_1" xmlns="http://www.w3.org/2000/svg" xmlns:xlink="http://www.w3.org/1999/xlink" x="0px" y="0px"
	 viewBox="0 0 23 20" style="enable-background:new 0 0 23 20;" xml:space="preserve">
<g id="RcOZQj.tif">
	<g>
		<path d="M9.9,1.4c0.1,0,0.2,0,0.3,0c0,0,0,0,0.1,0c0.5,0.1,0.8,0.3,1,0.7c0.3,0.6,0.2,1.2-0.3,1.7c-1.5,1.5-3,3-4.6,4.6L6.4,8.6
			c0.1,0,0.1,0,0.1,0c1.5,0,3.1,0,4.6,0c3,0,5.9,0,8.9,0c0.7,0,1.2,0.4,1.4,1c0,0.1,0,0.1,0.1,0.2c0,0.1,0,0.2,0,0.3s0,0.1-0.1,0.2
			c-0.2,0.6-0.7,1-1.4,1c-4.5,0-9,0-13.5,0H6.4l0,0c0.1,0.2,0.2,0.2,0.2,0.2c1.5,1.5,3,3,4.5,4.5l0.1,0.1c0.7,0.8,0.4,2.1-0.6,2.4
			c-0.1,0-0.2,0-0.3,0s-0.2,0-0.3,0l0,0c-0.4,0-0.6-0.2-0.9-0.4c-0.4-0.4-0.8-0.8-1.2-1.2C6,14.9,4,12.9,2.1,11
			c-0.2-0.2-0.3-0.4-0.4-0.7c0-0.1,0-0.1-0.1-0.2c0-0.1,0-0.2,0-0.3c0,0,0,0,0-0.1c0-0.3,0.2-0.6,0.4-0.8c0.1-0.1,0.2-0.2,0.3-0.3
			c2.2-2.2,4.5-4.5,6.7-6.7c0.2-0.2,0.4-0.3,0.7-0.4C9.9,1.4,9.9,1.4,9.9,1.4z"/>
	</g>
</g>
</svg>
