<?xml version="1.0" encoding="utf-8"?>
<!-- Generator: Adobe Illustrator 27.9.0, SVG Export Plug-In . SVG Version: 6.00 Build 0)  -->
<svg version="1.1" id="Camada_1" xmlns="http://www.w3.org/2000/svg" xmlns:xlink="http://www.w3.org/1999/xlink" x="0px" y="0px"
	 viewBox="0 0 529.6 529.6" style="enable-background:new 0 0 529.6 529.6;" xml:space="preserve">
<style type="text/css">
	.st0{fill:#FFFFFF;}
</style>
<g>
	<path class="st0" d="M523,284.9c-0.9,8-1.7,16-2.8,23.9c-4.7,35.1-16.7,67.7-35.5,97.7c-21,33.5-47.8,61.5-81.3,82.7
		c-17.5,11.1-36.2,19.9-55.8,26.5c-10.9,3.7-18.4-2-18.5-13.4c-0.1-22.5,0-45.1-0.1-67.6c-0.1-13.7-1.4-27.2-8.9-39.3
		c-2.2-3.5-5-6.7-7.6-10.1c10.1-1.9,20.2-3.2,30-5.7c26.4-6.7,49.9-18.3,66-41.3c11.8-16.9,17.2-36.3,19.6-56.6
		c1.8-15.7,2.4-31.5-0.9-47.2c-3.3-15.8-10.1-29.9-20.7-42c-2.6-3-3.1-5.4-1.8-9.3c6.9-20.9,4-41.4-3.8-61.5
		c-0.4-1.1-2.4-2.2-3.8-2.4c-9.2-1.4-17.8,1.2-25.8,5c-13,6.2-25.6,13.2-38.5,19.6c-2.2,1.1-5.2,1.8-7.4,1.3
		c-40.4-10.2-80.8-10.2-121.2,0c-2.4,0.6-5.7-0.2-7.8-1.5c-16.4-10.5-33.7-18.7-52.6-23.7c-0.3-0.1-0.6-0.2-1-0.3
		c-11.8-2.4-14-1.1-17.4,10.4c-5.5,18.5-6.4,37,0.1,55.5c0.5,1.5-0.1,4-1.1,5.2c-21.3,24.2-26.3,52.9-23.7,83.8
		c1.6,18.8,6,36.8,14.3,53.7c11.6,23.4,31.2,37.7,55,46.1c14.9,5.3,30.7,8,46.4,11.9c0.1-0.8,0.2-0.2,0,0.1
		c-8.1,8.4-12.6,18.5-14.5,29.9c-0.2,1.4-1.2,3.5-2.4,3.9c-17.9,6.8-36,10.3-53.7-0.5c-8.1-4.9-13.9-12-18.7-20.1
		c-7.4-12.7-17.9-21.9-32.1-26.1c-5.1-1.5-10.9-1.1-16.3-0.8c-3.7,0.2-4.9,3-2.4,6.1c2.3,2.9,4.6,6.1,7.7,7.8
		c13.6,7.8,21.2,20.3,27.4,33.9c3.7,8.1,6.9,16.4,13.7,22.6c10.9,9.9,24.2,13.7,38.4,14.3c12,0.5,24.1,0.1,36.7,0.1
		c0-0.2,0.2,1.1,0.2,2.4c0.2,13.6,0.4,27.2,0.5,40.9c0.1,13.3-7.9,18.8-20.5,14.4c-65.6-22.8-113.7-65.9-145.8-126.8
		C10.4,342.5,2.8,293.3,8.2,241.8c5.7-53.8,27-101,62.6-141.4C108,58.1,154.2,30,209.5,18.8c80.3-16.3,153.7,0.1,217.9,51.7
		c48.7,39.1,78.8,90,91,151.4c1.8,9,2.5,18.3,3.7,27.4c0.2,1.8,0.6,3.6,1,5.3C523,264.8,523,274.8,523,284.9z"/>
</g>
</svg>
