<?xml version="1.0" encoding="utf-8"?>
<!-- Generator: Adobe Illustrator 27.9.0, SVG Export Plug-In . SVG Version: 6.00 Build 0)  -->
<svg version="1.1" id="Camada_1" xmlns="http://www.w3.org/2000/svg" xmlns:xlink="http://www.w3.org/1999/xlink" x="0px" y="0px"
	 viewBox="0 0 529.6 529.6" style="enable-background:new 0 0 529.6 529.6;" xml:space="preserve">
<style type="text/css">
	.st0{fill:#FFFFFF;}
</style>
<g id="mFk0fO_00000031183626086385340670000005081382671022051004_">
	<g>
		<path class="st0" d="M264.9,60.8c76.5,0,153,0,229.5,0c15.3,0,26.4,6.6,32.4,20.6c2,4.7,2.7,10.3,2.7,15.6
			c0.1,49.9,0.1,100,0.1,149.9c0,62.5,0,124.9,0,187.4c0,17.3-10.6,30.7-27.2,34.1c-2.5,0.4-5.4,0.4-8.2,0.4c-153,0-306.2,0-459.2,0
			C14.3,468.8,0,454.5,0,433.7C0,321.2,0,208.6,0,96.2c0-21.1,14.1-35.4,35.2-35.4C111.9,60.8,188.4,60.8,264.9,60.8z M451.3,183.6
			c-1.7,1.1-2.7,1.7-3.4,2.3c-58.1,42.4-116.4,84.8-174.5,127.1c-7.4,5.4-9.6,5.2-17-0.1c-56.6-41.3-113.1-82.4-169.7-123.7
			c-2.4-1.7-4.8-3.4-7.8-5.5c0,89.2,0,177.5,0,266.3c1.7,0,3,0,4.2,0c121.2,0,242.4,0,363.4,0.1c4,0,4.8-1.3,4.8-4.9
			c-0.1-85.4-0.1-170.8-0.1-256.2C451.3,187.4,451.3,186,451.3,183.6z M77.8,80c1.3,1.1,2,1.8,2.8,2.5c5.9,4.4,11.7,8.6,17.7,13
			c54.3,39.6,108.6,79.1,162.8,118.8c3.1,2.3,4.9,2,7.9-0.1c20.5-15.1,41.2-30.1,61.7-45.1c39.6-28.8,79.2-57.7,118.8-86.5
			c0.8-0.6,1.8-0.8,2.8-1.3c-0.4-0.4-0.7-0.7-1.1-1.1C327,80,202.8,80,77.8,80z"/>
	</g>
</g>
</svg>
