<?xml version="1.0" encoding="utf-8"?>
<!-- Generator: Adobe Illustrator 27.9.0, SVG Export Plug-In . SVG Version: 6.00 Build 0)  -->
<svg version="1.1" id="Camada_1" xmlns="http://www.w3.org/2000/svg" xmlns:xlink="http://www.w3.org/1999/xlink" x="0px" y="0px"
	 viewBox="0 0 23 20" style="enable-background:new 0 0 23 20;" xml:space="preserve">
<style type="text/css">
	.st0{fill:#FFFFFF;}
</style>
<g id="RcOZQj.tif">
	<g>
		<path class="st0" d="M20,8.4c0,0.1,0,0.2,0,0.3c0,0,0,0,0,0.1c-0.1,0.5-0.3,0.8-0.7,1c-0.6,0.3-1.2,0.2-1.7-0.3
			c-1.5-1.5-3-3-4.6-4.6l-0.1-0.1c0,0.1,0,0.1,0,0.1c0,1.5,0,3.1,0,4.6c0,3,0,5.9,0,8.9c0,0.7-0.4,1.2-1,1.4c-0.1,0-0.1,0-0.2,0.1
			c-0.1,0-0.2,0-0.3,0s-0.1,0-0.2-0.1c-0.6-0.2-1-0.7-1-1.4c0-4.5,0-9,0-13.5V4.8l0,0C10,4.9,10,5,10,5C8.5,6.5,7,8,5.5,9.5L5.4,9.6
			C4.6,10.3,3.3,10,3,9c0-0.1,0-0.2,0-0.3s0-0.2,0-0.3l0,0C3,8,3.2,7.8,3.4,7.5c0.4-0.4,0.8-0.8,1.2-1.2c1.9-1.9,3.9-3.9,5.8-5.8
			c0.2-0.2,0.4-0.3,0.7-0.4c0.1,0,0.1,0,0.2-0.1c0.1,0,0.2,0,0.3,0c0,0,0,0,0.1,0c0.3,0,0.6,0.2,0.8,0.4c0.1,0.1,0.2,0.2,0.3,0.3
			c2.2,2.2,4.5,4.5,6.7,6.7c0.2,0.2,0.3,0.4,0.4,0.7C20,8.3,20,8.3,20,8.4z"/>
	</g>
</g>
</svg>
