<?xml version="1.0" encoding="utf-8"?>
<!-- Generator: Adobe Illustrator 27.9.0, SVG Export Plug-In . SVG Version: 6.00 Build 0)  -->
<svg version="1.1" id="Camada_1" xmlns="http://www.w3.org/2000/svg" xmlns:xlink="http://www.w3.org/1999/xlink" x="0px" y="0px"
	 viewBox="0 0 529.6 529.6" style="enable-background:new 0 0 529.6 529.6;" xml:space="preserve">
<style type="text/css">
	.st0{fill:#FFFFFF;}
</style>
<g>
	<g>
		<path class="st0" d="M266.7,0C61.2-1.5-66.2,212,32.1,393.2c4,7.1,5.2,17.4,4,25.6c-4.8,31.8-11.2,63.4-17.1,96.4
			c4.2,0,6.7,0.3,8.9,0c27.4-4.5,54.9-8.6,82.3-13.8c17.4-3.3,32.7-1.9,49.7,5.4c188.2,82,391.1-67.2,369.8-271.1
			C515.9,104.4,400.6,1,266.7,0z M451.4,386.1c-50.6,73.9-122.4,109.6-213,96.5c-28.4-4.2-55.5-17.4-83.5-25.9
			c-7.7-2.4-16.5-4.3-24.4-3.1c-18.3,2.7-36.3,7.4-57.6,11.9c3.4-21.1,7.3-38.5,8.6-55.8c0.7-9.4-0.7-20.4-5.5-28.1
			C10,273.4,43.3,137.3,151.9,74.1C259,11.6,401.2,49.5,459.7,158.7C500.5,234.9,501.1,313.5,451.4,386.1z"/>
		<path class="st0" d="M367,314.6c-33.8-18.7-34.1-19-58.9,10.9c-6.2,7.6-11.5,7.3-19.2,3.3c-28.3-14.6-52.7-33.6-71.6-59.7
			c-17-23.5-17.6-25.4,2.5-45.7c7.9-7.9,10.4-15,6-25.4c-6-14-11.6-28.1-16.2-42.5c-3.4-11-8.9-16.7-19.3-14.3
			c-23.8-0.1-43.3,18.3-49.7,44.6c-6.1,26.2,4.5,49.1,14.9,71.4c36,76.5,96,122.4,179.1,137.5c28.6,5.2,50.1-10.7,60.7-42.5
			C401.4,334,401.1,333.5,367,314.6z"/>
	</g>
</g>
</svg>
