<?xml version="1.0" encoding="utf-8"?>
<!-- Generator: Adobe Illustrator 27.9.0, SVG Export Plug-In . SVG Version: 6.00 Build 0)  -->
<svg version="1.1" id="Camada_1" xmlns="http://www.w3.org/2000/svg" xmlns:xlink="http://www.w3.org/1999/xlink" x="0px" y="0px"
	 viewBox="0 0 16 16" style="enable-background:new 0 0 16 16;" xml:space="preserve">
<style type="text/css">
	.st0{fill:#FBEB1B;}
</style>
<path class="st0" d="M14,16H2c-1.1,0-2-0.9-2-2V2c0-1.1,0.9-2,2-2h12c1.1,0,2,0.9,2,2v12C16,15.1,15.1,16,14,16z"/>
<path d="M13.7,5.4l-2.3,1.9c-0.2,0.2-0.5,0.2-0.7,0L8.4,5.4C8.1,5.1,7.5,5.3,7.5,5.8v3.4l-2.2-2C5.1,7,4.7,7,4.5,7.2l-2.1,2V6.1V5.3
	V5.1c0-0.3-0.2-0.5-0.5-0.5c-0.3,0-0.5,0.2-0.5,0.5v0.2v0.8v4.1c0,0.5,0.6,0.8,0.9,0.4l2.2-2c0.2-0.2,0.5-0.2,0.8,0l2.2,2
	c0.4,0.3,0.9,0.1,0.9-0.4V6.7l2.2,1.8c0.2,0.2,0.5,0.2,0.7,0l2.2-1.8v3.2v0.5v0.5c0,0.3,0.2,0.5,0.5,0.5c0.3,0,0.5-0.2,0.5-0.5v-0.5
	V9.9V5.8C14.6,5.3,14,5.1,13.7,5.4z"/>
</svg>
