<?xml version="1.0" encoding="utf-8"?>
<!-- Generator: Adobe Illustrator 27.9.0, SVG Export Plug-In . SVG Version: 6.00 Build 0)  -->
<svg version="1.1" id="Camada_1" xmlns="http://www.w3.org/2000/svg" xmlns:xlink="http://www.w3.org/1999/xlink" x="0px" y="0px"
	 viewBox="0 0 1011.4 422.7" style="enable-background:new 0 0 1011.4 422.7;" xml:space="preserve">
<style type="text/css">
	.st0{fill:#FFFFFF;}
</style>
<path class="st0" d="M948.8,11L771.4,157.5c-15.4,15.4-38.6,15.4-54,0L540,11c-23.1-23.1-69.4-7.7-69.4,30.9v262.3L300.8,149.8
	c-15.4-15.4-46.3-15.4-61.7,0l-162,154.3V65V3.3v35.3C77.1,15.4,61.7,0,38.6,0S0,15.4,0,38.6V3.3V65v316.3
	c0,38.6,46.3,61.7,69.4,30.9l169.7-154.3c15.4-15.4,38.6-15.4,61.7,0l169.7,154.3c30.9,23.1,69.4,7.7,69.4-30.9V113.1
	c0-0.8,0.9-1.2,1.5-0.7l168.3,137.7c15.4,15.4,38.6,15.4,54,0l169.7-138.9v246.9v38.6v-12.3c0,23.1,15.4,38.6,38.6,38.6
	s38.6-15.4,38.6-38.6v12.3v-38.6V41.8C1018.3,3.3,972-12.2,948.8,11z"/>
</svg>
