<?xml version="1.0" encoding="utf-8"?>
<!-- Generator: Adobe Illustrator 27.9.0, SVG Export Plug-In . SVG Version: 6.00 Build 0)  -->
<svg version="1.1" id="Camada_1" xmlns="http://www.w3.org/2000/svg" xmlns:xlink="http://www.w3.org/1999/xlink" x="0px" y="0px"
	 viewBox="0 0 1011.4 520.2" style="enable-background:new 0 0 1011.4 520.2;" xml:space="preserve">
<style type="text/css">
	.st0{fill:#FFFFFF;}
</style>
<path class="st0" d="M943.4,61L768.1,205.9c-15.2,15.2-38.1,15.2-53.4,0L539.3,61c-22.9-22.9-68.6-7.6-68.6,30.5v259.2L303,198.2
	c-15.2-15.2-45.7-15.2-61,0L81.9,350.7V114.4v-61V38.1C81.9,15.2,66.6,0,43.8,0S5.6,15.2,5.6,38.1v15.2v61V427
	c0,38.1,45.7,61,68.6,30.5L242,305c15.2-15.2,38.1-15.2,61,0l167.7,152.5c30.5,22.9,68.6,7.6,68.6-30.5V160.1L707,297.3
	c15.2,15.2,38.1,15.2,53.4,0l167.7-137.2v244v38.1v38.1c0,22.9,15.2,38.1,38.1,38.1c22.9,0,38.1-15.2,38.1-38.1v-38.1v-38.1V91.5
	C1012.1,53.4,966.3,38.1,943.4,61z"/>
</svg>
