<?xml version="1.0" encoding="utf-8"?>
<!-- Generator: Adobe Illustrator 27.9.0, SVG Export Plug-In . SVG Version: 6.00 Build 0)  -->
<svg version="1.1" id="Camada_1" xmlns="http://www.w3.org/2000/svg" xmlns:xlink="http://www.w3.org/1999/xlink" x="0px" y="0px"
	 viewBox="0 0 1011.4 520.2" style="enable-background:new 0 0 1011.4 520.2;" xml:space="preserve">
<path d="M943.5,61L768.1,205.9c-15.3,15.3-38.1,15.3-53.4,0L539.4,61c-22.9-22.9-68.7-7.6-68.7,30.5v259.2L302.9,198.2
	c-15.3-15.3-45.7-15.3-61,0L81.9,350.7V114.4v-61V38.1C81.9,15.3,66.6,0,43.7,0S5.6,15.3,5.6,38.1v15.3v61V427
	c0,38.1,45.7,61,68.7,30.5L242.1,305c15.3-15.3,38.1-15.3,61,0l167.8,152.5c30.5,22.9,68.7,7.6,68.7-30.5V160.1l167.8,137.2
	c15.3,15.3,38.1,15.3,53.4,0l167.8-137.2v244v38.1v38.1c0,22.9,15.3,38.1,38.1,38.1c22.9,0,38.1-15.3,38.1-38.1v-38.1v-38.1V91.5
	C1012.1,53.4,966.4,38.1,943.5,61z"/>
</svg>
