<?xml version="1.0" encoding="utf-8"?>
<!-- Generator: Adobe Illustrator 26.5.0, SVG Export Plug-In . SVG Version: 6.00 Build 0)  -->
<svg version="1.1" id="Camada_1" xmlns="http://www.w3.org/2000/svg" xmlns:xlink="http://www.w3.org/1999/xlink" x="0px" y="0px"
	 viewBox="0 0 3374.1 1000" style="enable-background:new 0 0 3374.1 1000;" xml:space="preserve">
<style type="text/css">
	.st0{fill:#FFFFFF;}
	.st1{fill:#7B27FF;}
</style>
<g>
	<g>
		<g>
			<g>
				<path class="st0" d="M1187.2,400.4c23.1,80.6,36.5,126.8,39,140.5h0.3c2.5-12.5,18.1-61.5,42.5-140.5h16.9
					c29,96.5,37.8,124.3,40.6,136.5h0.3c4.4-17.2,11.6-40.6,40.3-136.5h16.6l-49.3,156.1h-17.2c-16.9-55.3-37.2-123-40.3-137.4h-0.3
					c-3.1,15.3-20.9,71.2-41.2,137.4h-18.7l-45.9-156.1H1187.2z"/>
				<path class="st0" d="M1604.7,478.1c0,43.4-24,82.1-70.6,82.1c-42.2,0-68.4-34.7-68.4-81.8c0-44.7,24.7-81.8,70-81.8
					C1577.2,396.6,1604.7,429.1,1604.7,478.1z M1482.3,478.5c0,37.2,20,67.1,53.1,67.1c33.7,0,52.8-27.8,52.8-67.1
					c0-36.8-18.7-67.1-53.4-67.1C1499.1,411.3,1482.3,441,1482.3,478.5z"/>
				<path class="st0" d="M1834.2,478.1c0,43.4-24,82.1-70.6,82.1c-42.2,0-68.4-34.7-68.4-81.8c0-44.7,24.7-81.8,70-81.8
					C1806.7,396.6,1834.2,429.1,1834.2,478.1z M1711.8,478.5c0,37.2,20,67.1,53.1,67.1c33.7,0,52.8-27.8,52.8-67.1
					c0-36.8-18.7-67.1-53.4-67.1C1728.7,411.3,1711.8,441,1711.8,478.5z"/>
				<path class="st0" d="M2057.8,326.4v185.2c0,15,0,29.4,0.3,45h-15c-0.6-3.7-0.9-18.4-0.9-26.2c-7.8,19.1-25.3,30-52.5,30
					c-40.6,0-65-33.1-65-79.9c0-48.1,26.5-83.7,69-83.7c31.2,0,43.7,13.4,48.4,23.4v-93.7h15.7V326.4z M1941.3,479.7
					c0,42.8,22.2,65.9,49,65.9c41.2,0,52.5-28.4,52.5-70.9c0-40.3-9.7-63.4-49.7-63.4C1962.3,411.3,1941.3,436,1941.3,479.7z"/>
				<path class="st0" d="M2171.5,440.7c0-13.4,0-28.1-0.3-40.3h15.3c0.3,5.3,0.9,18.7,0.6,27.8c6.6-15.6,20.9-31.5,46.8-31.5
					c21.9,0,39,10.9,45.3,30.9c7.8-16.2,23.4-30.9,50.9-30.9c24,0,49,13.7,49,57.1v102.7h-15.6V455.7c0-20.9-7.5-43.7-36.5-43.7
					c-30.3,0-44,24.4-44,54.6v89.9h-15.3V456c0-22.8-6.9-44-35.6-44c-30.3,0-45,26.9-45,58.7v85.9h-15.6L2171.5,440.7L2171.5,440.7z
					"/>
				<path class="st0" d="M2607.4,510.9c0,15.3,0.3,39.7,0.3,45.6h-15c-0.6-4.1-0.9-14.4-0.9-27.2c-6.6,18.4-22.5,30.9-50.3,30.9
					c-22.5,0-51.2-8.7-51.2-56.5V400.4h15.3V500c0,22.8,7.2,45,38.1,45c35,0,48.1-19.7,48.1-64.3v-80.3h15.6L2607.4,510.9
					L2607.4,510.9z"/>
				<path class="st0" d="M2701.4,400.4h29v-48.7h15.6v48.7h37.2v14.7H2746v101.5c0,17.5,3.7,27.5,18.7,27.5c4.7,0,11.2-0.3,16.2-1.9
					v13.7c-5.3,2.2-12.8,2.8-19.4,2.8c-20,0-31.2-10-31.2-35V415.1h-29L2701.4,400.4L2701.4,400.4z"/>
				<path class="st0" d="M2874.8,442.9c0-26.2-0.3-37.5-0.3-42.5h15.3c0.3,5,0.6,15,0.6,35c9.1-23.4,29-37.5,54.3-38.7v16.9
					c-32.5,2.2-54.3,24.7-54.3,61.8v81.2h-15.6V442.9z"/>
				<path class="st0" d="M3140.2,526.9c0,13.7,1.2,24.7,2.2,29.7h-15c-1.2-3.7-2.2-10.6-2.8-24c-5.3,11.6-19.1,27.8-51.2,27.8
					c-36.2,0-51.8-23.4-51.8-46.8c0-34.4,26.5-50,73.4-50c13.1,0,23.4,0,29.7,0v-15.9c0-15.6-4.7-36.5-40.3-36.5
					c-31.5,0-36.2,16.6-39.7,29.4H3029c1.9-17.2,12.5-43.7,55.6-43.7c35.6,0,55.6,15,55.6,49.3L3140.2,526.9L3140.2,526.9z
					 M3124.9,476.9c-5.9,0-20.3,0-30.6,0c-34.7,0-56.2,9.1-56.2,35.9c0,19.7,14.1,33.1,35.9,33.1c44.7,0,50.9-29.7,50.9-63.4
					L3124.9,476.9L3124.9,476.9z"/>
				<path class="st0" d="M3254.2,439.7c0-13.7,0-26.9-0.3-39.3h15.3c0.6,5,0.9,25.3,0.6,29.7c6.9-15.9,19.7-33.4,51.8-33.4
					c27.8,0,52.5,15.6,52.5,58.7v101.2h-15.6v-98.7c0-27.8-11.6-45.9-38.7-45.9c-37.2,0-50,30.9-50,65v79.6h-15.6V439.7z"/>
			</g>
		</g>
	</g>
	<g>
		<polygon class="st1" points="0,659.2 0,303.3 34.6,303.3 34.6,582.3 245.7,389.6 463.6,583 463.6,227.5 712.9,438.8 971.4,228.4 
			971.4,620.8 936.8,620.8 936.8,299.6 712.4,482.2 498.2,300.6 498.2,658.5 246,434.7 		"/>
	</g>
</g>
</svg>
